<svg viewBox="0 0 512 512" xmlns="http://www.w3.org/2000/svg" xmlns:xlink="http://www.w3.org/1999/xlink"><clipPath id="a"><path d="m-1220 0h1200v630h-1200z"/></clipPath><g clip-path="url(#a)" fill="#231817"><path d="m-302.38-92 120.2 289.47 331.18-196.25-98.13 31.89 107.94-63.78-287.02 90.76-49.06-130.01z"/><path d="m158.81-92 120.2 289.47 331.18-196.25-98.13 31.89 107.94-63.78-287.02 90.76-49.06-130.01z"/><path d="m-422.81 145 120.21 289.47 331.17-196.25-98.12 31.89 107.93-63.78-287.01 90.77-49.07-130.02z"/><path d="m38.38 145 120.21 289.47 331.17-196.25-98.12 31.89 107.94-63.78-287.02 90.77-49.06-130.02z"/><path d="m-82.04 382 120.21 289.48 331.17-196.26-98.12 31.89 107.93-63.78-287.01 90.77-49.07-130.02z"/></g><path d="m84 152 98 236 270-160-80 26 88-52-234 74-40-106z" fill="#c96d18"/></svg>