<svg viewBox="0 0 1200 630" xmlns="http://www.w3.org/2000/svg" xmlns:xlink="http://www.w3.org/1999/xlink"><clipPath id="a"><path d="m0 0h1200v630h-1200z"/></clipPath><path d="m0 0h1200v630h-1200z" fill="#160b0a"/><g clip-path="url(#a)" fill="#231817"><path d="m-4.77-92 120.2 289.47 331.18-196.25-98.13 31.89 107.94-63.78-287.02 90.76-49.06-130.01z"/><path d="m456.42-92 120.21 289.47 331.17-196.25-98.12 31.89 107.94-63.78-287.02 90.76-49.07-130.01z"/><path d="m917.62-92 120.2 289.47 331.17-196.25-98.12 31.89 107.94-63.78-287.02 90.76-49.06-130.01z"/><path d="m-125.19 145 120.2 289.47 331.18-196.25-98.13 31.89 107.94-63.78-287.02 90.77-49.06-130.02z"/><path d="m336 145 120.2 289.47 331.18-196.25-98.13 31.89 107.94-63.78-287.02 90.77-49.06-130.02z"/><path d="m797.19 145 120.21 289.47 331.17-196.25-98.12 31.89 107.93-63.78-287.01 90.77-49.07-130.02z"/><path d="m-245.62 382 120.21 289.48 331.17-196.26-98.12 31.89 107.94-63.78-287.02 90.77-49.06-130.02z"/><path d="m215.58 382 120.2 289.48 331.18-196.26-98.13 31.89 107.94-63.78-287.02 90.77-49.06-130.02z"/><path d="m676.77 382 120.2 289.48 331.18-196.26-98.13 31.89 107.94-63.78-287.02 90.77-49.06-130.02z"/><path d="m1137.96 382 120.21 289.48 331.17-196.26-98.12 31.89 107.93-63.78-287.01 90.77-49.07-130.02z"/></g></svg>